<?xml version="1.0" encoding="utf-8"?>
<!-- Generator: Adobe Illustrator 19.1.0, SVG Export Plug-In . SVG Version: 6.00 Build 0)  -->
<svg version="1.1" id="Layer_1" xmlns="http://www.w3.org/2000/svg" xmlns:xlink="http://www.w3.org/1999/xlink" x="0px" y="0px"
	 viewBox="0 0 280 30" enable-background="new 0 0 280 30" xml:space="preserve">
<g>
	<g>
		<g>
			<path fill="#0C0015" d="M85.3,8.2c4.5,0.2,9,0.4,13.4,0.5c6,0.2,8.1,1.9,7.4,4.9c-0.6,2.4-2.9,3.5-5.6,4.1l0,0
				c2.7,0.2,5.1,1.4,4.4,4.4c-0.3,1.4-1.2,2.6-2.2,3.3c-1.5,1-2.9,1.5-7.1,1.7c-4.8,0.2-9.7,0.4-14.5,0.6
				C82.5,21.1,83.9,14.6,85.3,8.2 M90.2,24c0.8,0,1.6,0,2.5-0.1c2.9-0.1,4.1-0.8,4.4-2.3s-0.5-2.2-3.4-2.2c-0.8,0-1.6,0-2.5,0
				C90.8,21,90.5,22.5,90.2,24 M91.9,16.1c0.8,0,1.6,0,2.5,0c2.4,0,3.3-0.8,3.6-2c0.3-1.3-0.1-2-2.7-2.1c-0.8,0-1.6,0-2.4-0.1
				C92.5,13.4,92.2,14.7,91.9,16.1z"/>
			<path fill="#0C0015" d="M131.2,23.7c-2.6,1.7-6.3,3-11.3,3.1c-9.6,0.3-12.2-3.6-11-8.9c0.8-3.4,2.9-5.8,5.5-7.1
				c2.2-1.1,4.8-1.8,9.8-1.6c9.6,0.3,12.2,3.9,11,8.8C134.6,20.4,133.2,22.4,131.2,23.7 M123.4,12.9c-2.7,0-5.1,1.5-6,5
				s0.7,5.1,3.5,5c2.7,0,5.1-1.7,6-5C127.7,14.5,126.1,12.9,123.4,12.9z"/>
			<path fill="#0C0015" d="M139.3,9.9c2.7,0.1,5.3,0.1,8,0.1c0,3.3,0,6.6,0,9.8h0.1c2.1-3.3,4.2-6.5,6.3-9.7c3.1,0,6.2,0.1,9.2,0.1
				c0.3,3.2,0.7,6.4,1,9.6h0.1c1.7-3.2,3.5-6.4,5.2-9.6c2.5,0,5,0,7.4,0c-3,5.1-5.9,10.2-8.9,15.3c-3.5,0-7,0-10.5,0.1
				c-0.3-3.1-0.6-6.3-1-9.4h-0.1c-2,3.1-4.1,6.3-6.1,9.5c-3.5,0-7,0.1-10.5,0.2C139.5,20.6,139.4,15.2,139.3,9.9z"/>
			<path fill="#0C0015" d="M180.7,10.3c6,0,12.1,0,18.1-0.1c-0.3,1.1-0.6,2.2-0.9,3.3c-3.3,0-6.5,0-9.8,0c-0.3,1.1-0.6,2.1-0.9,3.2
				c3.1,0,6.2,0,9.3,0c-0.3,1.1-0.6,2.2-0.9,3.2c-3.1,0-6.2,0-9.3,0c-0.5,1.9-1,3.8-1.6,5.7c-2.8,0-5.5,0-8.3,0
				C177.9,20.4,179.3,15.4,180.7,10.3z"/>
			<path fill="#0C0015" d="M203.4,10.1c2.8,0,5.5-0.1,8.3-0.1c-1.1,4-2.1,7.9-3.2,11.9c3,0,6.1,0,9.1,0.1c-0.3,1.3-0.7,2.6-1,3.9
				c-5.8-0.1-11.6-0.2-17.4-0.2C200.6,20.5,202,15.3,203.4,10.1z"/>
			<path fill="#0C0015" d="M225.2,9.8c6.3-0.1,12.6-0.3,18.9-0.5c-0.3,1.2-0.6,2.4-0.9,3.6c-3.6,0.1-7.2,0.1-10.9,0.2
				c-0.3,1-0.5,2-0.8,3c3.4,0,6.8,0,10.2-0.1c-0.3,1.2-0.6,2.4-0.9,3.6c-3.4,0-6.8,0-10.2-0.1c-0.3,1-0.5,2-0.8,3
				c3.7,0,7.3,0.1,11,0.2c-0.3,1.2-0.6,2.4-0.9,3.5c-6.3-0.2-12.7-0.3-19-0.4C222.4,20.6,223.8,15.2,225.2,9.8z"/>
			<path fill="#0C0015" d="M255.6,17.7c-2.2-2.9-4.4-5.7-6.6-8.5c3.6-0.1,7.2-0.2,10.8-0.4c1.1,1.8,2.1,3.7,3.2,5.6
				c2-1.9,4-3.9,5.9-5.9c3.4-0.1,6.8-0.3,10.2-0.4c-3.6,3.4-7.2,6.6-10.8,9.6c2.3,3.2,4.6,6.5,6.9,9.9c-3.6-0.2-7.2-0.3-10.8-0.4
				c-1.1-2.1-2.3-4.2-3.4-6.3c-2.1,2-4.3,4-6.4,5.9c-3.3-0.1-6.7-0.2-10-0.3C248.2,23.7,251.9,20.7,255.6,17.7z"/>
		</g>
		<g>
			<path fill="#0C0015" d="M280,26.4c0,0.9-0.7,1.6-1.6,1.6s-1.6-0.7-1.6-1.6s0.7-1.6,1.6-1.6S280,25.5,280,26.4z M277,26.4
				c0,0.8,0.6,1.4,1.4,1.4c0.8,0,1.4-0.6,1.4-1.4c0-0.7-0.6-1.4-1.4-1.4C277.7,25,277,25.6,277,26.4z M277.8,25.5h0.6
				c0.1,0,0.6,0,0.6,0.4c0,0.1,0,0.3-0.3,0.4c0.2,0,0.2,0.1,0.3,0.3c0,0.2,0,0.4,0.1,0.5h-0.2c0-0.1,0-0.2-0.1-0.4
				c0-0.3-0.1-0.3-0.4-0.3h-0.3v0.8h-0.2v-1.7L277.8,25.5L277.8,25.5z M278.1,26.2h0.4c0.1,0,0.3,0,0.3-0.3s-0.2-0.3-0.3-0.3h-0.4
				V26.2z"/>
		</g>
	</g>
	<path fill="#E31837" d="M73.4,24.8c0,0.7-0.5,1.2-1.2,1.2S71,25.5,71,24.8s0.6-1.2,1.2-1.2C72.8,23.6,73.4,24.1,73.4,24.8z
		 M71.1,24.8c0,0.6,0.5,1.1,1.1,1.1s1.1-0.5,1.1-1.1s-0.5-1.1-1.1-1.1C71.6,23.7,71.1,24.2,71.1,24.8z M71.7,24.1h0.5
		c0.1,0,0.4,0,0.4,0.3c0,0,0,0.2-0.2,0.3c0.1,0,0.2,0.1,0.2,0.3s0,0.3,0.1,0.4h-0.2c0-0.1,0-0.1-0.1-0.3c0-0.2-0.1-0.2-0.3-0.2h-0.2
		v0.6h-0.2C71.7,25.5,71.7,24.1,71.7,24.1z M71.9,24.7h0.3c0.1,0,0.3,0,0.3-0.2s-0.2-0.2-0.3-0.2h-0.3V24.7z"/>
	<path fill="#E31837" d="M37,0C16.6,0,0,6.8,0,15.1c0,4.8,5.4,9,13.8,11.8c4.2-0.5,9.7-1.4,13.7-2.2c11.8-2.4,12.6-6.2,0.7-9.2
		c-4.8-1.2-9.6-2.3-9.6-2.3s4.4-0.3,5.1-0.4c3.5-0.3,9.3-1,14.7-2c9.4-1.6,9.4-5,1-7.1c-4.4-1.1-8.5-1.8-8.5-1.8s8-0.2,17.5,1.5
		c5.1,0.9,8.5,1.9,10.6,2.7c2.2,0.8,2,2,0.1,2.7c-3,1.2-11.7,3.4-18,4.5c-1.7,0.3-1.7,1.2-0.2,1.7c5,1.4,10.6,3.4,12.3,4.2
		c2.2,1,1.9,2.2-0.2,3c-4.7,1.8-14.4,5.1-25.6,6c-2.7,0.2-5.7,0.3-8.5,0.2c5.4,1.2,11.5,1.9,18.1,1.9c20.4,0,37-6.8,37-15.1
		C74,6.8,57.5,0,37,0z"/>
</g>
</svg>
