<?xml version="1.0" encoding="utf-8"?>
<!-- Generator: Adobe Illustrator 25.2.0, SVG Export Plug-In . SVG Version: 6.00 Build 0)  -->
<svg version="1.1" xmlns="http://www.w3.org/2000/svg" xmlns:xlink="http://www.w3.org/1999/xlink" x="0px" y="0px"
	 viewBox="0 0 966.67 318.3" style="enable-background:new 0 0 966.67 318.3;" xml:space="preserve">
<style type="text/css">
	.st0{display:none;}
	.st1{display:inline;opacity:0.1;}
	.st2{display:inline;}
	.st3{fill:#FFFFFF;}
	.st4{fill:#616160;}
	.st5{fill:#19AAE3;}
	.st6{fill:none;}
	.st7{fill:#575756;}
	.st8{display:none;fill:#616160;}
	.st9{display:none;fill:none;}
	.st10{stroke:#000000;stroke-miterlimit:10;}
	.st11{fill:#36A9E1;}
	.st12{fill:#3C3C3B;}
</style>
<g id="Laag_10" class="st0">
	<rect x="52.48" class="st1" width="861.7" height="318.3"/>
	<rect class="st1" width="966.67" height="318.3"/>
	<rect x="52.48" y="17.28" class="st1" width="861.7" height="283.74"/>
	<rect x="52.48" y="34.56" class="st1" width="861.7" height="249.18"/>
	<rect x="896.9" class="st2" width="17.28" height="17.28"/>
	<rect x="896.9" y="17.28" class="st2" width="17.28" height="17.28"/>
	<rect x="69.76" y="34.56" class="st1" width="827.14" height="249.18"/>
</g>
<g id="logo">
	<g>
		<path d="M459.09,438.56c27.51,0,41.27,12.58,41.27,12.58L486.6,480.7c0,0-8.19-9.22-24.88-9.22c-17.27,0-23.85,9.8-23.85,21.22
			c0,11.71,7.02,22.53,22.68,22.53c7.17,0,13.17-2.2,15.51-5.12v-1.02h-11.85v-23.27h41.85v59.12h-29.41v-6.15
			c0-1.02,0.15-1.76,0.29-2.49h-0.88c-2.49,3.66-9.07,10.39-25.31,10.39c-30.14,0-51.8-22.53-51.8-53.26
			C398.95,462.41,421.04,438.56,459.09,438.56z"/>
		<path d="M517.18,440.31h74.34v28.53h-36.29v9.51h28.97v27.8h-28.97v10.24h38.34v28.53h-76.38V440.31z"/>
		<path d="M629.57,472.51h-30.29v-32.19h98.63v32.19h-30.29v72.43h-38.05V472.51z"/>
		<path d="M729.81,440.31h72.87v28.53h-34.83v13.17h28.24v27.8h-28.24v35.12h-38.05V440.31z"/>
		<path d="M813.07,440.31h38.05v104.63h-38.05V440.31z"/>
		<path d="M890.18,472.51h-30.29v-32.19h98.63v32.19h-30.29v72.43h-38.05V472.51z"/>
		<path d="M403.19,615.92h50.92c20.49,0,34.83,9.37,34.83,27.36c0,8.78-4.83,17.71-13.61,22.24v0.29
			c12.58,3.66,17.12,14.34,17.12,23.56c0,22.83-18.73,31.17-39.07,31.17h-50.19V615.92z M447.09,655.86c3.95,0,6.29-3.22,6.29-8.19
			c0-4.68-2.49-7.46-6.73-7.46h-6.88v15.66H447.09z M446.06,696.25c5.85,0,8.19-4.24,8.19-8.78c0-4.54-2.49-8.49-8.05-8.49h-6.44
			v17.27H446.06z"/>
		<path d="M522.31,680.59l-34.53-64.68h39.22l8.05,17.85c2.63,6,5.85,16.54,5.85,16.54h0.88c0,0,3.37-10.68,5.85-16.54l7.9-17.85
			h39.36l-34.53,64.68v39.95h-38.05V680.59z"/>
		<path d="M642.74,615.92h41.56l33.36,104.63h-35.12l-4.54-16.53h-29.12l-4.39,16.53h-35.12L642.74,615.92z M671.13,678.55
			l-3.66-13.46c-1.76-6.58-3.51-19.46-3.51-19.46h-0.88c0,0-1.76,12.88-3.51,19.46l-3.66,13.46H671.13z"/>
		<path d="M723.52,615.92h50.92c20.49,0,34.83,9.37,34.83,27.36c0,8.78-4.83,17.71-13.61,22.24v0.29
			c12.58,3.66,17.12,14.34,17.12,23.56c0,22.83-18.73,31.17-39.07,31.17h-50.19V615.92z M767.42,655.86c3.95,0,6.29-3.22,6.29-8.19
			c0-4.68-2.49-7.46-6.73-7.46h-6.88v15.66H767.42z M766.39,696.25c5.85,0,8.19-4.24,8.19-8.78c0-4.54-2.49-8.49-8.05-8.49h-6.44
			v17.27H766.39z"/>
		<path d="M829.46,682.06c0,0,12.73,10.83,27.22,10.83c4.54,0,6.59-1.32,6.59-3.95c0-4.54-6.29-4.68-16.39-8.78
			c-13.17-5.27-27.07-13.9-27.07-32.78c0-21.22,17.56-33.22,42.58-33.22c23.12,0,36.88,10.39,36.88,10.39l-9.37,28.24
			c0,0-12.29-9.22-25.61-9.22c-4.1,0-6.44,0.73-6.44,3.51c0,4.68,7.02,4.83,17.56,8.93c12,4.68,25.9,13.46,25.9,32.49
			c0,19.46-14.63,33.8-41.7,33.8c-26.34,0-42.14-13.46-42.14-13.46L829.46,682.06z"/>
	</g>
	<path class="st3" d="M314.46,588.38c-0.13-4.74-2.41-8.28-6.71-10.27c-4.29-2-8.49-1.49-12.17,1.48c-1.53,1.23-2.64,2.99-3.88,4.43
		c-3.29-6.37-10.61-8.17-16.77-6.14c-1.13-3.43-2.8-8.55-3.09-9.56c-3.62-12.6-11.65-21.26-23.59-26.4
		c-7.58-3.26-15.58-4.73-23.73-5.38c11.58-4.86,19.68-16.29,19.67-29.66c0-17.68-14.36-32.12-31.94-32.13
		c-18.06,0-32.42,14.24-32.43,32.16c-0.01,13.38,8.12,24.81,19.75,29.65c-0.34,0.02-0.67,0.05-1.01,0.08
		c-7.35,0.67-14.55,1.98-21.43,4.73c-11.6,4.62-20,12.44-24.12,24.45c-0.63,1.82-2.79,8.41-3.94,11.98
		c-6.39-1.9-13.82,0.32-16.8,6.97c-0.21-0.44-0.41-0.86-0.61-1.27c-2.3-4.66-6.99-7.06-12.38-6.33c-4.66,0.62-8.76,4.37-9.46,9.22
		c-0.45,3.1-0.27,6.3-0.28,9.45c-0.02,5.05,2.84,9.24,7.4,11.01c4.57,1.77,9.5,0.62,12.91-3.05c0.25-0.27,0.39-0.63,0.58-0.95
		c0.13,0.09,0.26,0.18,0.39,0.27v1.39c0,9.91,0.01,19.82,0,29.74c0,3.54,1.1,6.6,3.72,9.08c0.29,0.27,0.4,0.88,0.36,1.31
		c-0.02,0.2-0.04,0.41-0.07,0.61c0,0.02-0.01,0.03,0,0.04c-0.3,1.22-0.38,2.3-0.44,3.19c-0.01,0.04-0.01,0.07-0.01,0.1
		c-0.05,0.48-0.08,0.95-0.07,1.43c0.01,0.64,0.06,1.24,0.12,1.82c0,0.01,0,0.03,0,0.04c0.03,0.27,0.06,0.53,0.1,0.78
		c0,0.01,0,0.02,0,0.03l0-0.01c0.76,4.98,3.53,7.59,9.19,8.9c2.19,0.51,4.41,0.94,6.63,1.15c3.56,0.34,7.15,0.76,10.71,0.6
		c4.91-0.21,8.22-3.9,8.42-8.8c0-0.01,0-0.01,0-0.02c0.01-0.05,0.01-0.1,0.01-0.15c0.03-1.09,0.03-2.18,0.02-3.29v-0.23
		c0.04-1.69,0.08-1.94-0.01-2.5c2.7,0.25,5.6,0.52,8.59,0.8v37.06h5.87l56.28,0.05h6.11v-37.17c2.84-0.28,5.61-0.56,8.13-0.81
		c0,0.1,0,0.68-0.01,1.85v2.17c0,0.61,0,1.21,0.02,1.82c0.1,5.26,3.47,9.03,8.72,9.26c3.26,0.14,6.57-0.1,9.8-0.57
		c3.53-0.5,7.07-1.23,10.46-2.3c3.22-1.01,5.17-3.53,5.83-6.89c0.33-1.66,0.51-3.32,0.46-4.96v-0.17c0-0.93-0.11-2.25-0.62-3.74
		c-0.01-0.02-0.01-0.04-0.02-0.06c-0.08-0.29-0.18-0.57-0.29-0.85c0.6-0.49,1.16-0.9,1.66-1.36c2.41-2.23,3.06-5.12,3.06-8.25
		c-0.01-9.74-0.01-19.48-0.01-29.22v-1.52c0.27,0.08,0.33,0.08,0.36,0.11c0.22,0.21,0.44,0.41,0.66,0.62
		c3.33,3.26,7.3,4.24,11.7,2.9c4.42-1.35,7.29-4.43,7.95-9.01C314.67,594.91,314.56,591.62,314.46,588.38z M140.28,637.52
		c1.4-1.04,2.81-1.67,3.99-2.08C142.87,635.96,141.54,636.65,140.28,637.52z M162.4,637.61c0.8,0.57,1.83,1.44,2.84,2.67
		C164.35,639.25,163.4,638.36,162.4,637.61z M258.03,641.18c-0.05,0.07-0.11,0.13-0.19,0.2c0.28-0.37,0.5-0.63,0.61-0.76
		C258.31,640.8,258.17,640.99,258.03,641.18z"/>
	<circle cx="211.86" cy="580.43" r="141.87"/>
	<path class="st4" d="M267.42,563.41c-0.78,6.27-1.55,12.54-2.32,18.81c-1.9,1.86-3.77,3.04-5.99,3.58
		c-7.35,1.79-14.2-3.37-14.55-11.08c-0.14-2.98-0.11-5.98,0.16-8.95c0.47-5.14,4.44-9.27,9.37-10.08c5.45-0.9,10.48,1.68,12.75,6.53
		C267.02,562.61,267.21,562.99,267.42,563.41z"/>
	<g>
		<g>
			<path class="st4" d="M315.12,576.59c-0.66,4.58-3.53,7.66-7.95,9.01c-4.4,1.34-8.37,0.36-11.7-2.9
				c-0.22-0.21-0.44-0.41-0.66-0.62c-0.74-6.52-1.47-13.04-2.2-19.56c1.24-1.44,2.35-3.2,3.88-4.43c3.68-2.97,7.88-3.48,12.17-1.48
				c4.3,1.99,6.58,5.53,6.71,10.27C315.47,570.12,315.58,573.41,315.12,576.59z"/>
			<path class="st5" d="M169.48,654.5c0.01-0.05,0.01-0.1,0.01-0.15c0.03-1.09,0.03-2.18,0.02-3.29
				C169.48,652.52,169.48,653.71,169.48,654.5z M258.57,640.48c0.77-0.87,1.89-2.01,3.43-3.18
				C260.75,638.16,259.59,639.21,258.57,640.48z"/>
			<path class="st5" d="M169.51,650.83v0.23c-0.03,1.46-0.03,2.65-0.03,3.44c0,0.01,0,0.01,0,0.02c-0.2,4.9-3.51,8.59-8.42,8.8
				c-3.56,0.16-7.15-0.26-10.71-0.6c-2.22-0.21-4.44-0.64-6.63-1.15c-6.59-1.53-9.28-4.8-9.41-11.56c-0.01-0.48,0.02-0.95,0.07-1.43
				c0-0.03,0-0.06,0.01-0.1c0.11-1.06,0.31-2.13,0.44-3.19c-0.01-0.01,0-0.02,0-0.04c0.15-0.59,0.34-1.21,0.61-1.85
				c1.21-2.88,3.19-4.6,4.19-5.39c0.07-0.06,0.13-0.1,0.19-0.15c0.15-0.12,0.31-0.24,0.46-0.34c1.26-0.87,2.59-1.56,3.99-2.08
				c0.04-0.02,0.08-0.03,0.12-0.04c0.14-0.05,0.28-0.1,0.42-0.14c1.11-0.38,2.26-0.64,3.45-0.8c5.38-0.73,10.16,0.15,14.14,3.15
				c1,0.75,1.95,1.64,2.84,2.67c0.05,0.05,0.09,0.1,0.13,0.15c0.12,0.14,0.26,0.32,0.44,0.54c0.52,0.66,1.3,1.7,2.25,3.39
				c1.4,2.52,1.32,3.15,1.44,3.97C169.5,649.18,169.51,650.01,169.51,650.83z"/>
			<path class="st5" d="M275.84,556.38c-1.97,0.65-3.82,1.69-5.38,3.11c-1.22,1.08-2.25,2.4-3.04,3.92c-0.21-0.42-0.4-0.8-0.58-1.19
				c-2.27-4.85-7.3-7.43-12.75-6.53c-4.93,0.81-8.9,4.94-9.37,10.08c-0.27,2.97-0.3,5.97-0.16,8.95c0.35,7.71,7.2,12.87,14.55,11.08
				c2.22-0.54,4.09-1.72,5.99-3.58c-0.38,4.85-1.64,30.84-2,35.57c-14.25-0.68-28.47-1.09-42.68-1.21
				c12.28-3.6,21.23-14.86,21.6-28.08c0.04-1.26-0.01-2.52-0.13-3.76c-1.44-14.76-13.71-27.03-29.68-27.16
				c-16.27-0.14-28.88,12.2-30.27,27.25c-0.07,0.72-0.11,1.44-0.13,2.17c-0.3,14.23,9.08,25.91,21.59,29.58
				c-14.04,0.11-28.08,0.51-42.13,1.21c-0.37-4.64-1.4-30.54-1.75-34.89c0.16-0.03,0.22-0.06,0.25-0.04c0.3,0.24,0.6,0.49,0.91,0.72
				c3.61,2.72,7.56,3.34,11.74,1.64c3.98-1.61,6.54-4.66,7.01-8.93c0.38-3.46,0.38-7.01,0.07-10.48c-0.73-8.28-9.97-12.95-17.2-8.88
				c-2.45,1.38-4.17,3.4-5.3,6.02c-0.86-1.48-1.95-2.75-3.18-3.77c-1.61-1.36-3.47-2.34-5.44-2.91c1.15-3.57,4,11.37,4.63,9.55
				c4.12-12.01,12.52-19.83,24.12-24.45c6.88-2.75,14.08-4.06,21.43-4.73c0.34-0.03,0.67-0.06,1.01-0.08
				c-11.63-4.84-19.76-16.27-19.75-29.65c0.01-17.92,14.37-32.16,32.43-32.16c17.58,0.01,31.94,14.45,31.94,32.13
				c0.01,13.37-8.09,24.8-19.67,29.66c8.15,0.65,16.15,2.12,23.73,5.38c11.94,5.14,19.97,13.8,23.59,26.4
				C272.13,569.33,274.71,552.95,275.84,556.38z"/>
			<path class="st5" d="M289.76,648.47v0.17c0.05,1.64-0.13,3.3-0.46,4.96c-0.66,3.36-2.61,5.88-5.83,6.89
				c-3.39,1.07-6.93,1.8-10.46,2.3c-3.23,0.47-6.54,0.71-9.8,0.57c-5.25-0.23-8.62-4-8.72-9.26c-0.02-0.61-0.02-1.21-0.02-1.82
				v-2.17c0.01-1.17,0.01-1.75,0.01-1.85c0.03-2.32,2.2-5.4,3.35-6.87l0.01-0.01c0.08-0.07,0.14-0.13,0.19-0.2
				c0.14-0.19,0.28-0.38,0.42-0.56c0.04-0.04,0.06-0.07,0.07-0.08c0.02-0.02,0.03-0.04,0.05-0.06c0.77-0.87,1.89-2.01,3.43-3.18
				c0.02-0.02,0.04-0.03,0.06-0.05c6.44-4.4,15.31-3.74,20.96-0.2c0.02,0.01,0.03,0.03,0.05,0.04c1.52,1.13,2.61,2.27,3.33,3.12
				c0.9,1.08,2.01,2.4,2.72,4.46c0.01,0.02,0.01,0.04,0.02,0.06C289.52,645.96,289.71,647.21,289.76,648.47z"/>
		</g>
	</g>
	<path class="st4" d="M157,562.95"/>
	<path class="st4" d="M179.43,576.29c-0.47,4.27-3.03,7.32-7.01,8.93c-4.18,1.7-8.13,1.08-11.74-1.64
		c-0.31-0.23-0.61-0.48-0.91-0.72c-0.03-0.02-0.09,0.01-0.25,0.04c-0.84-6.65-1.68-13.3-2.52-19.95c1.13-2.62,2.85-4.64,5.3-6.02
		c7.23-4.07,16.47,0.6,17.2,8.88C179.81,569.28,179.81,572.83,179.43,576.29z"/>
	<path class="st4" d="M131.58,563.24c-0.61,6.03-1.23,12.05-1.84,18.08c-0.19,0.32-0.33,0.68-0.58,0.95
		c-3.41,3.67-8.34,4.82-12.91,3.05c-4.56-1.77-7.42-5.96-7.4-11.01c0.01-3.15-0.17-6.35,0.28-9.45c0.7-4.85,4.8-8.6,9.46-9.22
		c5.39-0.73,10.08,1.67,12.38,6.33C131.17,562.38,131.37,562.8,131.58,563.24z"/>
	<path class="st6" d="M289.76,648.47c0-0.93-0.11-2.25-0.62-3.74"/>
	<path class="st6" d="M134.83,645.29c-0.3,1.22-0.38,2.3-0.44,3.19"/>
	<path class="st3" d="M294.45,583.49c0,9.74-0.91,40.98-0.9,50.72c0,3.13-0.65,6.02-3.06,8.25c-0.5,0.46-1.06,0.87-1.66,1.36
		c0.11,0.28,0.21,0.56,0.29,0.85c-0.71-2.06-1.82-3.38-2.72-4.46c-0.72-0.85-1.81-1.99-3.33-3.12c-0.02-0.01-0.03-0.03-0.05-0.04
		c-5.65-3.54-14.52-4.2-20.96,0.2c-0.02,0.02-0.04,0.03-0.06,0.05c-1.25,0.86-2.41,1.91-3.43,3.18c-0.02,0.02-0.03,0.04-0.05,0.06
		c-0.01,0.01-0.03,0.04-0.07,0.08c-0.11,0.13-0.33,0.39-0.61,0.76l-0.01,0.01c-1.15,1.47-3.32,4.55-3.35,6.87
		c-2.52,0.25-5.29,0.53-8.13,0.81v37.17h-6.11l-56.28-0.05h-5.87v-37.06c-2.99-0.28-5.89-0.55-8.59-0.8
		c-0.12-0.82-0.04-1.45-1.44-3.97c-0.95-1.69-1.73-2.73-2.25-3.39c-0.18-0.22-0.32-0.4-0.44-0.54c-0.04-0.05-0.08-0.1-0.13-0.15
		c-1.01-1.23-2.04-2.1-2.84-2.67c-3.98-3-8.76-3.88-14.14-3.15c-1.19,0.16-2.34,0.42-3.45,0.8c-0.14,0.04-0.28,0.09-0.42,0.14
		c-0.04,0.01-0.08,0.02-0.12,0.04c-1.18,0.41-2.59,1.04-3.99,2.08c-0.15,0.1-0.31,0.22-0.46,0.34c-0.06,0.05-0.12,0.09-0.19,0.15
		c-1,0.79-2.98,2.51-4.19,5.39c-0.27,0.64-0.46,1.26-0.61,1.85c0.03-0.2,0.05-0.41,0.07-0.61c0.04-0.43-0.07-1.04-0.36-1.31
		c-2.62-2.48-3.72-5.54-3.72-9.08c0.01-9.92-0.69-41.36-0.69-51.27v-1.39c-0.13-0.09-0.26-0.18-0.39-0.27
		c0.61-6.03,1.23-12.05,1.84-18.08c2.98-6.65,10.41-8.87,16.8-6.97c1.97,0.57,3.83,1.55,5.44,2.91c1.23,1.02,2.32,2.29,3.18,3.77
		c0.84,6.65,1.68,13.3,2.52,19.95c0.35,4.35,1.38,30.25,1.75,34.89c14.05-0.7,28.09-1.1,42.13-1.21
		c-12.51-3.67-21.89-15.35-21.59-29.58c0.02-0.73,0.06-1.45,0.13-2.17c1.39-15.05,14-27.39,30.27-27.25
		c15.97,0.13,28.24,12.4,29.68,27.16c0.12,1.24,0.17,2.5,0.13,3.76c-0.37,13.22-9.32,24.48-21.6,28.08
		c14.21,0.12,28.43,0.53,42.68,1.21c0.36-4.73,1.62-30.72,2-35.57c0.77-6.27,1.54-12.54,2.32-18.81c0.79-1.52,1.82-2.84,3.04-3.92
		c1.56-1.42,3.41-2.46,5.38-3.11c6.16-2.03,13.48-0.23,16.77,6.14c0.73,6.52,1.46,13.04,2.2,19.56c-0.03-0.03-0.09-0.03-0.36-0.11
		V583.49z"/>
	<path class="st6" d="M134.53,652.68c-0.15-1.01-0.27-2.42-0.15-4.1"/>
	<path class="st6" d="M169.5,648.33c0.09,0.56,0.05,0.81,0.01,2.5"/>
</g>
<g id="undertitled">
	<g>
		<path d="M477.23,36.83c22.19,0,33.29,10.15,33.29,10.15l-11.1,23.84c0,0-6.61-7.44-20.07-7.44c-13.93,0-19.24,7.91-19.24,17.12
			c0,9.44,5.67,18.18,18.3,18.18c5.78,0,10.62-1.77,12.51-4.13v-0.83h-9.56V74.96h33.76v47.69H491.4v-4.96
			c0-0.83,0.12-1.42,0.24-2.01h-0.71c-2.01,2.95-7.32,8.38-20.42,8.38c-24.32,0-41.78-18.18-41.78-42.96
			C428.72,56.07,446.55,36.83,477.23,36.83z"/>
		<path d="M525.85,36.83h61.97v23.79h-30.26v7.93h24.16v23.18h-24.16v8.54h31.96v23.79h-63.68V36.83z"/>
		<path d="M619.54,63.67h-25.25V36.83h82.23v26.84h-25.25v60.39h-31.72V63.67z"/>
		<path d="M703.12,36.83h60.76v23.79h-29.04V71.6h23.54v23.18h-23.54v29.28h-31.72V36.83z"/>
		<path d="M772.53,36.83h31.72v87.23h-31.72V36.83z"/>
		<path d="M836.83,63.67h-25.25V36.83h82.23v26.84h-25.25v60.39h-31.72V63.67z"/>
		<path d="M430.84,141.19h42.46c17.08,0,29.04,7.81,29.04,22.81c0,7.32-4.03,14.76-11.35,18.54v0.24
			c10.49,3.05,14.27,11.96,14.27,19.64c0,19.03-15.62,25.99-32.57,25.99h-41.85V141.19z M467.44,174.5c3.29,0,5.25-2.68,5.25-6.83
			c0-3.9-2.07-6.22-5.61-6.22h-5.73v13.05H467.44z M466.59,208.17c4.88,0,6.83-3.54,6.83-7.32c0-3.78-2.07-7.08-6.71-7.08h-5.37
			v14.4H466.59z"/>
		<path d="M544.99,195.12l-28.79-53.92h32.7l6.71,14.88c2.2,5,4.88,13.79,4.88,13.79h0.73c0,0,2.81-8.91,4.88-13.79l6.59-14.88
			h32.82l-28.79,53.92v33.31h-31.72V195.12z"/>
		<path d="M656.97,141.19h34.65l27.81,87.23h-29.28l-3.78-13.79h-24.28l-3.66,13.79h-29.28L656.97,141.19z M680.63,193.41
			l-3.05-11.22c-1.46-5.49-2.93-16.23-2.93-16.23h-0.73c0,0-1.46,10.74-2.93,16.23l-3.05,11.22H680.63z"/>
		<path d="M734.52,141.19h42.45c17.08,0,29.04,7.81,29.04,22.81c0,7.32-4.03,14.76-11.35,18.54v0.24
			c10.49,3.05,14.27,11.96,14.27,19.64c0,19.03-15.62,25.99-32.57,25.99h-41.85V141.19z M771.12,174.5c3.29,0,5.25-2.68,5.25-6.83
			c0-3.9-2.07-6.22-5.61-6.22h-5.73v13.05H771.12z M770.26,208.17c4.88,0,6.83-3.54,6.83-7.32c0-3.78-2.07-7.08-6.71-7.08h-5.37
			v14.4H770.26z"/>
		<path d="M835.75,195.96c0,0,10.27,8.73,21.95,8.73c3.66,0,5.31-1.06,5.31-3.19c0-3.66-5.08-3.78-13.22-7.08
			c-10.62-4.25-21.84-11.21-21.84-26.44c0-17.11,14.16-26.79,34.35-26.79c18.65,0,29.74,8.38,29.74,8.38l-7.55,22.78
			c0,0-9.91-7.44-20.66-7.44c-3.3,0-5.19,0.59-5.19,2.83c0,3.78,5.66,3.9,14.16,7.2c9.68,3.78,20.89,10.86,20.89,26.2
			c0,15.7-11.8,27.27-33.64,27.27c-21.25,0-33.99-10.86-33.99-10.86L835.75,195.96z"/>
		<g>
			<path class="st7" d="M430.84,246.62h9.56c6.08,0,10.14,3.88,10.14,10.66c0,6.83-3.65,11.35-10.77,11.35h-5.56v17.38h-3.36V246.62
				z M434.2,265.68h5.21c4.98,0,7.7-2.72,7.7-8.4c0-4.52-2.37-7.76-7.18-7.76h-5.73V265.68z"/>
			<path class="st7" d="M477.23,266.61h-13.32V283h14.77l-0.46,3.01h-17.61v-39.39h17.32v3.01h-14.02v13.96h13.32V266.61z"/>
			<path class="st7" d="M491.65,267.36v18.65h-3.36v-39.39h9.67c6.37,0,9.62,3.76,9.62,9.96c0,5.97-2.78,8.46-5.33,9.27
				c3.88,1.27,4.92,4.75,4.92,10.14v1.56c0,3.36,0.06,6.31,0.58,8.46h-3.42c-0.52-1.8-0.52-5.44-0.52-8.57v-1.27
				c0-5.73-1.1-8.8-6.78-8.8H491.65z M491.65,264.46h5.62c5.04,0,6.89-3.07,6.89-7.82c0-4.17-1.91-7.12-6.55-7.12h-5.97V264.46z"/>
			<path class="st7" d="M520.53,275.55c0.29,4.23,2.46,7.6,6.97,7.6c4.29,0,6.63-2.29,6.63-7.32c0-4.46-1.66-6.75-7.09-9.38
				c-5.89-2.8-8.63-5.49-8.63-11.03c0-5.03,3.2-9.32,9.32-9.32c7.03,0,9.03,5.2,9.15,9.6h-3.26c-0.17-1.77-0.74-6.75-6.06-6.75
				c-4.12,0-5.83,2.86-5.83,6.17c0,4.06,1.83,5.95,6.8,8.35c6.75,3.26,8.98,6.52,8.98,12.06c0,6.17-3.32,10.46-10.12,10.46
				c-7.38,0-9.83-4.92-10.18-10.46H520.53z"/>
			<path class="st7" d="M569,265.71c0,12.86-2.92,20.3-11.15,20.3c-7.89,0-10.92-7.09-10.92-20.18c0-12.98,3.6-19.78,11.09-19.78
				C565.91,246.04,569,252.62,569,265.71z M550.36,265.71c0,11.78,2.52,17.38,7.6,17.38c5.26,0,7.6-5.55,7.6-17.27
				c0-12.18-2.57-16.81-7.66-16.81C552.99,249.02,550.36,254.39,550.36,265.71z"/>
			<path class="st7" d="M580.32,286.01v-39.39h4.34c11.93,29.31,13.44,32.84,13.96,34.46h0.06c-0.29-5.5-0.35-11.47-0.35-17.84
				v-16.62h3.19v39.39h-4.11c-12.4-30.64-13.73-34.06-14.13-35.51h-0.06c0.29,4.92,0.29,11.64,0.29,18.71v16.8H580.32z"/>
			<path class="st7" d="M617.45,272.57l-3.19,13.44h-3.3l9.61-39.39h4.34l10.02,39.39h-3.59l-3.24-13.44H617.45z M627.35,269.56
				c-2.61-10.48-4.17-16.86-4.69-19.75h-0.12c-0.52,3.36-2.26,10.83-4.4,19.75H627.35z"/>
			<path class="st7" d="M644.26,246.62h3.36V283h14.25l-0.58,3.01h-17.03V246.62z"/>
			<path class="st7" d="M690.83,249.64h-8.92v-3.01h21.14v3.01h-8.92v36.37h-3.3V249.64z"/>
			<path class="st7" d="M715.38,267.36v18.65h-3.36v-39.39h9.67c6.37,0,9.62,3.76,9.62,9.96c0,5.97-2.78,8.46-5.33,9.27
				c3.88,1.27,4.92,4.75,4.92,10.14v1.56c0,3.36,0.06,6.31,0.58,8.46h-3.42c-0.52-1.8-0.52-5.44-0.52-8.57v-1.27
				c0-5.73-1.1-8.8-6.78-8.8H715.38z M715.38,264.46H721c5.04,0,6.89-3.07,6.89-7.82c0-4.17-1.91-7.12-6.55-7.12h-5.97V264.46z"/>
			<path class="st7" d="M746.77,272.57l-3.19,13.44h-3.3l9.61-39.39h4.34l10.02,39.39h-3.59l-3.24-13.44H746.77z M756.68,269.56
				c-2.61-10.48-4.17-16.86-4.69-19.75h-0.12c-0.52,3.36-2.26,10.83-4.4,19.75H756.68z"/>
			<path class="st7" d="M776.95,246.62v39.39h-3.36v-39.39H776.95z"/>
			<path class="st7" d="M789.69,286.01v-39.39h4.34c11.93,29.31,13.44,32.84,13.96,34.46h0.06c-0.29-5.5-0.35-11.47-0.35-17.84
				v-16.62h3.19v39.39h-4.11c-12.4-30.64-13.73-34.06-14.13-35.51h-0.06c0.29,4.92,0.29,11.64,0.29,18.71v16.8H789.69z"/>
			<path class="st7" d="M827.04,246.62v39.39h-3.36v-39.39H827.04z"/>
			<path class="st7" d="M839.78,286.01v-39.39h4.34c11.93,29.31,13.44,32.84,13.96,34.46h0.06c-0.29-5.5-0.35-11.47-0.35-17.84
				v-16.62h3.19v39.39h-4.11c-12.4-30.64-13.73-34.06-14.13-35.51h-0.06c0.29,4.92,0.29,11.64,0.29,18.71v16.8H839.78z"/>
			<path class="st7" d="M893.57,285.49h-2.69c-0.11-1.03-0.23-2.34-0.23-4.52c-1.09,2.57-2.74,5.03-7.83,5.03
				c-8.52,0-10.46-9.21-10.46-20.01c0-13.09,3.89-19.95,11.61-19.95c8.86,0,9.49,8,9.61,10.35h-3.32c-0.11-1.31-0.4-7.38-6.35-7.38
				c-5.89,0-8.06,6.63-8.06,16.92c0,9.95,1.6,17.15,7.43,17.15c5.83,0,7.03-4.92,7.03-13.95v-1.83h-7.32v-2.92h10.58V285.49z"/>
		</g>
	</g>
	<g id="Laag_8">
		<path class="st8" d="M157,141.67"/>
		<path class="st9" d="M289.76,227.19c0-0.93-0.11-2.25-0.62-3.74"/>
		<path class="st9" d="M134.83,224.01c-0.3,1.22-0.38,2.3-0.44,3.19"/>
		<g>
			<path class="st3" d="M-230.89,588.38c-0.13-4.74-2.41-8.28-6.71-10.27c-4.29-2-8.49-1.49-12.17,1.48
				c-1.53,1.23-2.64,2.99-3.88,4.43c-3.29-6.37-10.61-8.17-16.77-6.14c-1.13-3.43-2.8-8.55-3.09-9.56
				c-3.62-12.6-11.65-21.26-23.59-26.4c-7.58-3.26-15.58-4.73-23.73-5.38c11.58-4.86,19.68-16.29,19.67-29.66
				c0-17.68-14.36-32.12-31.94-32.13c-18.06,0-32.42,14.24-32.43,32.16c-0.01,13.38,8.12,24.81,19.75,29.65
				c-0.34,0.02-0.67,0.05-1.01,0.08c-7.35,0.67-14.55,1.98-21.43,4.73c-11.6,4.62-20,12.44-24.12,24.45
				c-0.63,1.82-2.79,8.41-3.94,11.98c-6.39-1.9-13.82,0.32-16.8,6.97c-0.21-0.44-0.41-0.86-0.61-1.27
				c-2.3-4.66-6.99-7.06-12.38-6.33c-4.66,0.62-8.76,4.37-9.46,9.22c-0.45,3.1-0.27,6.3-0.28,9.45c-0.02,5.05,2.84,9.24,7.4,11.01
				c4.57,1.77,9.5,0.62,12.91-3.05c0.25-0.27,0.39-0.63,0.58-0.95c0.13,0.09,0.26,0.18,0.39,0.27v1.39c0,9.91,0.01,19.82,0,29.74
				c0,3.54,1.1,6.6,3.72,9.08c0.29,0.27,0.4,0.88,0.36,1.31c-0.02,0.2-0.04,0.41-0.07,0.61c0,0.02-0.01,0.03,0,0.04
				c-0.3,1.22-0.38,2.3-0.44,3.19c-0.01,0.04-0.01,0.07-0.01,0.1c-0.05,0.48-0.08,0.95-0.07,1.43c0.01,0.64,0.06,1.24,0.12,1.82
				c0,0.01,0,0.03,0,0.04c0.03,0.27,0.06,0.53,0.1,0.78c0,0.01,0,0.02,0,0.03l0-0.01c0.76,4.98,3.53,7.59,9.19,8.9
				c2.19,0.51,4.41,0.94,6.63,1.15c3.56,0.34,7.15,0.76,10.71,0.6c4.91-0.21,8.22-3.9,8.42-8.8c0-0.01,0-0.01,0-0.02
				c0.01-0.05,0.01-0.1,0.01-0.15c0.03-1.09,0.03-2.18,0.02-3.29v-0.23c0.04-1.69,0.08-1.94-0.01-2.5c2.7,0.25,5.6,0.52,8.59,0.8
				v37.06h5.87l56.28,0.05h6.11v-37.17c2.84-0.28,5.61-0.56,8.13-0.81c0,0.1,0,0.68-0.01,1.85v2.17c0,0.61,0,1.21,0.02,1.82
				c0.1,5.26,3.47,9.03,8.72,9.26c3.26,0.14,6.57-0.1,9.8-0.57c3.53-0.5,7.07-1.23,10.46-2.3c3.22-1.01,5.17-3.53,5.83-6.89
				c0.33-1.66,0.51-3.32,0.46-4.96v-0.17c0-0.93-0.11-2.25-0.62-3.74c-0.01-0.02-0.01-0.04-0.02-0.06
				c-0.08-0.29-0.18-0.57-0.29-0.85c0.6-0.49,1.16-0.9,1.66-1.36c2.41-2.23,3.06-5.12,3.06-8.25c-0.01-9.74-0.01-19.48-0.01-29.22
				v-1.52c0.27,0.08,0.33,0.08,0.36,0.11c0.22,0.21,0.44,0.41,0.66,0.62c3.33,3.26,7.3,4.24,11.7,2.9c4.42-1.35,7.29-4.43,7.95-9.01
				C-230.68,594.91-230.79,591.62-230.89,588.38z M-405.07,637.52c1.4-1.04,2.81-1.67,3.99-2.08
				C-402.48,635.96-403.81,636.65-405.07,637.52z M-382.95,637.61c0.8,0.57,1.83,1.44,2.84,2.67
				C-381,639.25-381.95,638.36-382.95,637.61z M-287.32,641.18c-0.05,0.07-0.11,0.13-0.19,0.2c0.28-0.37,0.5-0.63,0.61-0.76
				C-287.04,640.8-287.18,640.99-287.32,641.18z"/>
			<path d="M-333.49,722.3c-78.35,0-141.87-63.52-141.87-141.87s63.52-141.87,141.87-141.87"/>
			<path d="M-333.49,438.56c78.35,0,141.87,63.52,141.87,141.87S-255.14,722.3-333.49,722.3"/>
			<g>
				<g>
					<path class="st5" d="M-375.84,646.99v0.18c-0.03,1.12-0.03,2.04-0.03,2.64c0,0.01,0,0.01,0,0.02c-0.2,3.77-3.51,6.6-8.42,6.76
						c-3.56,0.12-7.15-0.2-10.71-0.46c-2.22-0.16-4.44-0.49-6.63-0.88c-6.59-1.18-9.28-3.69-9.41-8.89
						c-0.01-0.37,0.02-0.73,0.07-1.1c0-0.02,0-0.05,0.01-0.08c0.11-0.81,0.31-1.64,0.44-2.45c-0.01-0.01,0-0.02,0-0.03
						c0.15-0.45,0.34-0.93,0.61-1.42c1.21-2.21,3.19-3.54,4.19-4.14c0.07-0.05,0.13-0.08,0.19-0.12c0.15-0.09,0.31-0.18,0.46-0.26
						c1.26-0.67,2.59-1.2,3.99-1.6c0.04-0.02,0.08-0.02,0.12-0.03c0.14-0.04,0.28-0.08,0.42-0.11c1.11-0.29,2.26-0.49,3.45-0.61
						c5.38-0.56,10.16,0.12,14.14,2.42c1,0.58,1.95,1.26,2.84,2.05c0.05,0.04,0.09,0.08,0.13,0.12c0.12,0.11,0.26,0.25,0.44,0.42
						c0.52,0.51,1.3,1.31,2.25,2.61c1.4,1.94,1.32,2.42,1.44,3.05C-375.85,645.72-375.84,646.36-375.84,646.99z"/>
					<path class="st5" d="M-363.41,584.83c-0.07,0.72-0.11,1.44-0.13,2.17c-0.3,14.23,9.08,25.91,21.59,29.58
						c-14.04,0.11-28.08,0.51-42.13,1.21c-0.37-4.64-1.4-30.54-1.75-34.89c0.16-0.03,0.22-0.06,0.25-0.04
						c0.3,0.24,0.6,0.49,0.91,0.72c3.61,2.72,7.56,3.34,11.74,1.64c3.98-1.61,6.54-4.66,7.01-8.93c0.38-3.46,0.38-7.01,0.07-10.48
						c-0.73-8.28-9.97-12.95-17.2-8.88c-2.45,1.38-4.17,3.4-5.3,6.02c-0.64-0.78-1.9-2.09-3.9-3c-1.4-0.63-2.66-0.84-3.54-0.92
						c-0.26,0.66-0.77,2.25-0.12,3.9c0.76,1.93,2.91,3.41,3.47,3.05c0.08-0.05,0.11-0.14,0.12-0.15c1.5-4.33,4.97-7.78,6.6-12.07
						c1.7-4.44,8.33-15.6,17.52-17.42c4.98-0.99,8.07,1.3,21.43,0.3c0.42-0.03,0.77-0.06,1.01-0.08
						c-11.63-4.84-19.76-16.27-19.75-29.65c0.01-17.92,14.37-32.16,32.43-32.16c17.58,0.01,31.94,14.45,31.94,32.13
						c0,0.92,0.16,5.48-1.89,10.94c-4.47,11.93-15.16,17.16-18.04,18.46c0.16,0.03,0.41,0.07,0.72,0.11
						c13.12,1.94,17.53-1.46,23.44-0.06"/>
					<path class="st5" d="M-333.14,557.58c-16.27-0.14-28.88,12.2-30.27,27.25"/>
					<path class="st5" d="M-296.93,536.34c9.76,2.32,15.21,15.75,15.81,17.23c2.08,5.13,6.2,9.41,7.61,14.76
						c0,0.01,0.01,0.04,0.03,0.04c0.3,0.08,2.12-5.76,3.97-11.98c-1.97,0.65-3.82,1.69-5.38,3.11c-1.22,1.08-2.25,2.4-3.04,3.92
						c-0.21-0.42-0.4-0.8-0.58-1.19c-2.27-4.85-7.3-7.43-12.75-6.53c-4.93,0.81-8.9,4.94-9.37,10.08c-0.27,2.97-0.3,5.97-0.16,8.95
						c0.35,7.71,7.2,12.87,14.55,11.08c2.22-0.54,4.09-1.72,5.99-3.58c-0.38,4.85-1.64,30.84-2,35.57
						c-14.25-0.68-28.47-1.09-42.68-1.21c12.28-3.6,21.23-14.86,21.6-28.08c0.04-1.26-0.01-2.52-0.13-3.76
						c-1.44-14.76-13.71-27.03-29.68-27.16"/>
					<path class="st5" d="M-255.59,645.15v0.13c0.05,1.26-0.13,2.53-0.46,3.81c-0.66,2.58-2.61,4.51-5.83,5.29
						c-3.39,0.82-6.93,1.38-10.46,1.77c-3.23,0.36-6.54,0.55-9.8,0.44c-5.25-0.18-8.62-3.07-8.72-7.11
						c-0.02-0.47-0.02-0.93-0.02-1.4v-1.67c0.01-0.9,0.01-1.34,0.01-1.42c0.03-1.78,2.2-4.15,3.35-5.28l0.01-0.01
						c0.08-0.05,0.14-0.1,0.19-0.15c0.14-0.15,0.28-0.29,0.42-0.43c0.04-0.03,0.06-0.05,0.07-0.06c0.02-0.02,0.03-0.03,0.05-0.05
						c0.77-0.67,1.89-1.54,3.43-2.44c0.02-0.02,0.04-0.02,0.06-0.04c6.44-3.38,15.31-2.87,20.96-0.15c0.02,0.01,0.03,0.02,0.05,0.03
						c1.52,0.87,2.61,1.74,3.33,2.4c0.9,0.83,2.01,1.84,2.72,3.42c0.01,0.02,0.01,0.03,0.02,0.05
						C-255.83,643.22-255.64,644.18-255.59,645.15z"/>
				</g>
			</g>
			<g>
				<g>
					<path class="st4" d="M-230.24,576.59c-0.66,4.58-3.53,7.66-7.95,9.01c-4.4,1.34-8.37,0.36-11.7-2.9
						c-0.22-0.21-0.44-0.41-0.66-0.62c-0.74-6.52-1.47-13.04-2.2-19.56c1.24-1.44,2.35-3.2,3.88-4.43
						c3.68-2.97,7.88-3.48,12.17-1.48c4.3,1.99,6.58,5.53,6.71,10.27C-229.89,570.12-229.77,573.41-230.24,576.59z"/>
					<path class="st4" d="M-277.94,563.41c-0.78,6.27-1.55,12.54-2.32,18.81c-1.9,1.86-3.77,3.04-5.99,3.58
						c-7.35,1.79-14.2-3.37-14.55-11.08c-0.14-2.98-0.11-5.98,0.16-8.95c0.47-5.14,4.44-9.27,9.37-10.08
						c5.45-0.9,10.48,1.68,12.75,6.53C-278.33,562.61-278.14,562.99-277.94,563.41z"/>
				</g>
				<g>
					<path class="st4" d="M-365.93,576.29c-0.47,4.27-3.03,7.32-7.01,8.93c-4.18,1.7-8.13,1.08-11.74-1.64
						c-0.31-0.23-0.61-0.48-0.91-0.72c-0.03-0.02-0.09,0.01-0.25,0.04c-0.84-6.65-1.68-13.3-2.52-19.95
						c1.13-2.62,2.85-4.64,5.3-6.02c7.23-4.07,16.47,0.6,17.2,8.88C-365.55,569.28-365.55,572.83-365.93,576.29z"/>
					<path class="st4" d="M-413.78,563.24c-0.61,6.03-1.23,12.05-1.84,18.08c-0.19,0.32-0.33,0.68-0.58,0.95
						c-3.41,3.67-8.34,4.82-12.91,3.05c-4.56-1.77-7.42-5.96-7.4-11.01c0.01-3.15-0.17-6.35,0.28-9.45c0.7-4.85,4.8-8.6,9.46-9.22
						c5.39-0.73,10.08,1.67,12.38,6.33C-414.19,562.38-413.99,562.8-413.78,563.24z"/>
				</g>
			</g>
			<path class="st3" d="M-333.14,557.58c15.97,0.13,28.24,12.4,29.68,27.16c0.12,1.24,0.17,2.5,0.13,3.76
				c-0.37,13.22-9.32,24.48-21.6,28.08c1.58-1.34,11.88-9.76,25.84-7.47c8.9,1.46,14.65,6.52,16.84,8.68
				c-0.78-8.77-0.46-15.86-0.01-20.79c0.42-4.55,0.94-7.14,2.01-14.78c1.12-7.98,1.86-14.5,2.32-18.81
				c0.79-1.52,1.82-2.84,3.04-3.92c1.56-1.42,3.41-2.46,5.38-3.11c6.16-2.03,13.48-0.23,16.77,6.14c0.34,2.57,0.74,5.89,1.1,9.78
				c0.49,5.46,0.67,9.53,0.74,11.19c0,0-0.9,19-0.9,50.72c0,3.13-0.65,6.02-3.06,8.25c-0.5,0.46-1.06,0.87-1.66,1.36
				c0.11,0.28,0.21,0.56,0.29,0.85c-0.71-2.06-1.82-3.38-2.72-4.46c-0.72-0.85-1.81-1.99-3.33-3.12c-0.02-0.01-0.03-0.03-0.05-0.04
				c-5.65-3.54-14.52-4.2-20.96,0.2c-0.02,0.02-0.04,0.03-0.06,0.05c-1.25,0.86-2.41,1.91-3.43,3.18c-0.02,0.02-0.03,0.04-0.05,0.06
				c-0.01,0.01-0.03,0.04-0.07,0.08c-0.11,0.13-0.33,0.39-0.61,0.76l-0.01,0.01c-1.15,1.47-3.32,4.55-3.35,6.87
				c-1.06,0.04-2.87,0.03-5.06-0.37c-3.45-0.63-4.56-1.65-5.33-1.44c-1.85,0.49-2.59,8.17,2.26,39.79h-6.11l-56.28-0.05h-5.87
				c4.72-28.99,4.18-37.62,2-38.24c-0.91-0.26-2.51,0.77-6.41,0.77c-1.74,0-3.18-0.2-4.19-0.39c-0.12-0.82-0.04-1.45-1.44-3.97
				c-0.95-1.69-1.73-2.73-2.25-3.39c-0.18-0.22-0.32-0.4-0.44-0.54c-0.04-0.05-0.08-0.1-0.13-0.15c-1.01-1.23-2.04-2.1-2.84-2.67
				c-3.98-3-8.76-3.88-14.14-3.15c-1.19,0.16-2.34,0.42-3.45,0.8c-0.14,0.04-0.28,0.09-0.42,0.14c-0.04,0.01-0.08,0.02-0.12,0.04
				c-1.18,0.41-2.59,1.04-3.99,2.08c-0.15,0.1-0.31,0.22-0.46,0.34c-0.06,0.05-0.12,0.09-0.19,0.15c-1,0.79-2.98,2.51-4.19,5.39
				c-0.27,0.64-0.46,1.26-0.61,1.85c0.03-0.2,0.05-0.41,0.07-0.61c0.04-0.43-0.07-1.04-0.36-1.31c-2.62-2.48-3.72-5.54-3.72-9.08
				c0.01-9.92-0.69-41.36-0.69-51.27v-1.39c-0.13-0.09-0.26-0.18-0.39-0.27c0.61-6.03,1.23-12.05,1.84-18.08
				c2.98-6.65,10.41-8.87,16.8-6.97c1.97,0.57,3.83,1.55,5.44,2.91c1.23,1.02,2.32,2.29,3.18,3.77c0.5,4.48,1.32,11.41,2.52,19.95
				c0.98,6.94,1.42,9.38,1.8,13.44c0.46,5.01,0.79,12.33-0.04,21.45c2.12-2.12,7.8-7.22,16.65-8.68c13.8-2.27,23.96,6.16,25.48,7.47
				c-12.51-3.67-21.89-15.35-21.59-29.58c0.02-0.73,0.06-1.45,0.13-2.17C-362.02,569.78-349.41,557.44-333.14,557.58"/>
		</g>
	</g>
</g>
<g id="Layer_5">
	<g>
		<circle class="st10" cx="197.82" cy="161.42" r="140.43"/>
		<g id="back_body">
			<g>
				<path class="st3" d="M197.09,45.97c5.13,0.03,14.09,0.85,17.38,6.68c0.14,0.25,0.24,0.46,0.45,0.89c1,2.1,3.69,8.38,2.69,15.57
					c-0.51,3.64-1,2.81-1.58,7.36c-0.75,5.88,0.41,6.41-0.53,9.99c-1.36,5.2-4.47,5.42-4.21,9.47c0.14,2.19,1.28,4.54,3.16,5.79
					c1.54,1.02,3.18,1.04,3.68,1.05c4.51,0.11,27.63,2.47,35.77,11.05c2.52,2.65,5.49,7.88,4.24,19.04
					c3.93,6.04,5.76,11.52,6.68,15.15c0.61,2.42,1.39,5.57,1.34,9.8c-0.06,5.01-1.25,9.03-2.23,11.59c1.62,2.49,3.38,5.61,4.9,9.36
					c2.07,5.1,3.07,9.74,3.56,13.37c0.3,1.78,0.59,3.56,0.89,5.35c7.5,2.51,12.18,7.88,11.59,12.03c-0.8,5.52-11.06,9.76-18.27,6.24
					c-6.59-3.22-7.51-11.4-7.58-12.03c-1.35-2.04-2.71-4.26-4.01-6.68c-3.46-6.42-5.68-12.54-7.13-17.82
					c-6.39-9.34-7.68-16.01-7.58-20.5c0.05-2.29-1.1-4.79-0.89-8.02c0.17-2.71,0.8-4.9,1.32-6.36c-1.75,11.9-3.95,16.54-5.79,18.41
					c-0.55,0.56-2.89,2.73-3.16,5.79c-0.05,0.62,0.04,0.59,0,2.1c-0.03,1.1-0.08,3.08-0.53,5.26c-0.43,2.11-0.74,2.03-1.05,3.68
					c-0.39,2.06-0.01,2.69,0,5.26c0.02,4.46-1.12,5.38-0.84,9.91c0.01,0.21,0.05,1.37,0.31,2.72c1.32,6.76,4.58,8.38,4.21,11.05
					c-0.53,3.73-7.97,7.82-36.82,9.93C197.09,160.94,197.09,103.45,197.09,45.97z"/>
			</g>
			<g>
				<path class="st3" d="M198.09,45.97c-5.13,0.03-14.09,0.85-17.38,6.68c-0.14,0.25-0.24,0.46-0.45,0.89
					c-1,2.1-3.69,8.38-2.69,15.57c0.51,3.64,1,2.81,1.58,7.36c0.75,5.88-0.41,6.41,0.53,9.99c1.36,5.2,4.47,5.42,4.21,9.47
					c-0.14,2.19-1.28,4.54-3.16,5.79c-1.54,1.02-3.18,1.04-3.68,1.05c-4.51,0.11-27.63,2.47-35.77,11.05
					c-2.52,2.65-5.49,7.88-4.24,19.04c-3.93,6.04-5.76,11.52-6.68,15.15c-0.61,2.42-1.39,5.57-1.34,9.8
					c0.06,5.01,1.25,9.03,2.23,11.59c-1.62,2.49-3.38,5.61-4.9,9.36c-2.07,5.1-3.07,9.74-3.56,13.37c-0.3,1.78-0.59,3.56-0.89,5.35
					c-7.5,2.51-12.18,7.88-11.59,12.03c0.8,5.52,11.06,9.76,18.27,6.24c6.59-3.22,7.51-11.4,7.58-12.03
					c1.35-2.04,2.71-4.26,4.01-6.68c3.46-6.42,5.68-12.54,7.13-17.82c6.39-9.34,7.68-16.01,7.58-20.5c-0.05-2.29,1.1-4.79,0.89-8.02
					c-0.17-2.71-0.8-4.9-1.32-6.36c1.75,11.9,3.95,16.54,5.79,18.41c0.55,0.56,2.89,2.73,3.16,5.79c0.05,0.62-0.04,0.59,0,2.1
					c0.03,1.1,0.08,3.08,0.53,5.26c0.43,2.11,0.74,2.03,1.05,3.68c0.39,2.06,0.01,2.69,0,5.26c-0.02,4.46,1.12,5.38,0.84,9.91
					c-0.01,0.21-0.05,1.37-0.31,2.72c-1.32,6.76-4.58,8.38-4.21,11.05c0.53,3.73,7.97,7.82,36.82,9.93
					C198.09,160.94,198.09,103.45,198.09,45.97z"/>
			</g>
		</g>
		<g id="front_body">
			<g>
				<path class="st11" d="M197.09,150.11c3.33,0.07,6.02,0.58,7.89,1.05c3.02,0.76,5.09,1.31,6.84,3.16
					c1.16,1.23,1.65,2.47,2.1,3.68c0.38,1.01,1.17,3.4,0.74,10.94c-0.29,5.01-0.2,3.84-0.74,7.47c-1.02,6.82-1.13,7.69-2.1,8.94
					c-1.04,1.33-1.88,1.59-2.63,3.16c-1.11,2.33-0.66,4.74-0.53,5.26c1.68,6.53,40.44,9.71,45.01,28.93
					c0.25,1.03,2.46,5.29,3.75,8.42c0.95,2.31,3.19,8.48,2.25,16.04c-0.2,1.62-0.51,2.96-0.75,3.88c0.43-4.77,1.04-8.62,1.5-11.15
					c1.3-7.19,2.45-10,3-15.6c0.44-4.56,0.22-8.26,0-10.52c-1.8-2.49-3.86-6.28-2.68-9.47c2.66-7.2,21.03-9.23,25.25-2.1
					c2.45,4.15-0.57,10.23-1.58,12.1c-1.08,1.92-2.59,4.98-3.75,8.94c-1.73,5.94-1.03,8.54-2.25,15.25
					c-0.62,3.38-1.42,7.79-3.75,12.62c-1.75,3.63-5.11,9.06-11.99,14.95c-4.11,3.51-8.51,6.05-13.16,5.33
					c-11.65-1.81-18.03-25.1-14.02-28.17c0.74-0.57,2.03-0.58,2.63,0c1.69,1.63-2.74,7.18-5.79,15.78
					c-3.15,8.88-1.37,11.27-3.4,15.3c-2.52,5.01-9.84,10.36-31.84,10.47C197.09,239.88,197.09,195,197.09,150.11z"/>
			</g>
			<g>
				<path class="st11" d="M198.09,150.11c-3.33,0.07-6.02,0.58-7.89,1.05c-3.02,0.76-5.09,1.31-6.84,3.16
					c-1.16,1.23-1.65,2.47-2.1,3.68c-0.38,1.01-1.17,3.4-0.74,10.94c0.29,5.01,0.2,3.84,0.74,7.47c1.02,6.82,1.13,7.69,2.1,8.94
					c1.04,1.33,1.88,1.59,2.63,3.16c1.11,2.33,0.66,4.74,0.53,5.26c-1.68,6.53-40.44,9.71-45.01,28.93
					c-0.25,1.03-2.46,5.29-3.75,8.42c-0.95,2.31-3.19,8.48-2.25,16.04c0.2,1.62,0.51,2.96,0.75,3.88c-0.43-4.77-1.04-8.62-1.5-11.15
					c-1.3-7.19-2.45-10-3-15.6c-0.44-4.56-0.22-8.26,0-10.52c1.8-2.49,3.86-6.28,2.68-9.47c-2.66-7.2-21.03-9.23-25.25-2.1
					c-2.45,4.15,0.57,10.23,1.58,12.1c1.08,1.92,2.59,4.98,3.75,8.94c1.73,5.94,1.03,8.54,2.25,15.25
					c0.62,3.38,1.42,7.79,3.75,12.62c1.75,3.63,5.11,9.06,11.99,14.95c4.11,3.51,8.51,6.05,13.16,5.33
					c11.65-1.81,18.03-25.1,14.02-28.17c-0.74-0.57-2.03-0.58-2.63,0c-1.69,1.63,2.74,7.18,5.79,15.78
					c3.15,8.88,1.37,11.27,3.4,15.3c2.52,5.01,9.84,10.36,31.84,10.47C198.09,239.88,198.09,195,198.09,150.11z"/>
			</g>
		</g>
		<g id="weights">
			<g>
				<g>
					<path class="st12" d="M263.87,206.13c-0.36-6.83-3.38-11.51-4.6-13.21c-1.1-0.49-2.76-1.07-4.86-1.26
						c-2.43-0.22-4.41,0.18-5.65,0.53c-2.7,2.57-4.12,5.16-4.87,6.84c-3.6,8.08-0.84,15.79,0,17.88c1.27,3.16,2.99,5.44,4.21,6.84
						c1.53,0.11,3.3,0.13,5.25,0c1.97-0.14,3.74-0.41,5.26-0.73C259.72,221.43,264.32,214.52,263.87,206.13z"/>
				</g>
				<g>
					<path class="st12" d="M283.93,206.13c0.36-6.83,3.38-11.51,4.6-13.21c1.1-0.49,2.76-1.07,4.86-1.26
						c2.43-0.22,4.41,0.18,5.65,0.53c2.7,2.57,4.12,5.16,4.87,6.84c3.6,8.08,0.84,15.79,0,17.88c-1.27,3.16-2.99,5.44-4.21,6.84
						c-1.53,0.11-3.3,0.13-5.25,0c-1.97-0.14-3.74-0.41-5.26-0.73C288.08,221.43,283.49,214.52,283.93,206.13z"/>
				</g>
			</g>
			<g>
				<g>
					<path class="st12" d="M130.31,206.13c0.36-6.83,3.38-11.51,4.6-13.21c1.1-0.49,2.76-1.07,4.86-1.26
						c2.43-0.22,4.41,0.18,5.65,0.53c2.7,2.57,4.12,5.16,4.87,6.84c3.6,8.08,0.84,15.79,0,17.88c-1.27,3.16-2.99,5.44-4.21,6.84
						c-1.53,0.11-3.3,0.13-5.25,0c-1.97-0.14-3.74-0.41-5.26-0.73C134.46,221.43,129.86,214.52,130.31,206.13z"/>
				</g>
				<g>
					<path class="st12" d="M110.24,206.13c-0.36-6.83-3.38-11.51-4.6-13.21c-1.1-0.49-2.76-1.07-4.86-1.26
						c-2.43-0.22-4.41,0.18-5.65,0.53c-2.7,2.57-4.12,5.16-4.87,6.84c-3.6,8.08-0.84,15.79,0,17.88c1.27,3.16,2.99,5.44,4.21,6.84
						c1.53,0.11,3.3,0.13,5.25,0c1.97-0.14,3.74-0.41,5.26-0.73C106.09,221.43,110.69,214.52,110.24,206.13z"/>
				</g>
			</g>
		</g>
	</g>
</g>
</svg>
