<svg id="Layer_1" data-name="Layer 1" xmlns="http://www.w3.org/2000/svg" viewBox="0 0 620 620"><defs><style>.cls-1{fill:#231f20;stroke:#231f20;stroke-miterlimit:10;}.cls-2{fill:#fff;}.cls-3{fill:#27aae1;}.cls-4{fill:#414042;}</style></defs><circle class="cls-1" cx="310" cy="310" r="267"/><g id="back_body" data-name="back body"><path class="cls-2" d="M309.5,90.5c9.75.06,26.79,1.61,33,12.71.27.47.46.88.85,1.69,1.9,4,7,15.94,5.11,29.6-1,6.92-1.9,5.34-3,14-1.43,11.18.78,12.18-1,19-2.59,9.89-8.49,10.31-8,18a14.64,14.64,0,0,0,6,11,13,13,0,0,0,7,2c8.57.21,52.52,4.7,68,21,4.78,5,10.44,15,8.07,36.21a95.94,95.94,0,0,1,12.71,28.8,68,68,0,0,1,2.54,18.64,63.94,63.94,0,0,1-4.24,22,104.75,104.75,0,0,1,16.1,43.21q.85,5.08,1.69,10.16c14.27,4.78,23.17,15,22,22.88-1.51,10.49-21,18.55-34.73,11.86-12.54-6.12-14.29-21.68-14.41-22.87-2.57-3.88-5.14-8.11-7.62-12.71a161.78,161.78,0,0,1-13.56-33.89c-12.14-17.76-14.6-30.44-14.4-39,.1-4.36-2.09-9.11-1.69-15.25a44.19,44.19,0,0,1,2.51-12.1c-3.33,22.63-7.51,31.45-11,35-1.05,1.07-5.5,5.19-6,11-.1,1.18.07,1.13,0,4a56.51,56.51,0,0,1-1,10c-.81,4-1.4,3.87-2,7-.75,3.91,0,5.11,0,10,0,8.48-2.13,10.23-1.6,18.83a37.33,37.33,0,0,0,.6,5.17c2.5,12.86,8.71,15.94,8,21-1,7.1-15.16,14.86-70,18.87Z"/><path class="cls-2" d="M310.5,90.5c-9.75.06-26.79,1.61-33,12.71-.27.47-.46.88-.85,1.69-1.9,4-7,15.94-5.11,29.6,1,6.92,1.9,5.34,3,14,1.43,11.18-.78,12.18,1,19,2.59,9.89,8.49,10.31,8,18a14.64,14.64,0,0,1-6,11,13,13,0,0,1-7,2c-8.57.21-52.52,4.7-68,21-4.78,5-10.44,15-8.07,36.21a95.94,95.94,0,0,0-12.71,28.8,68,68,0,0,0-2.54,18.64,63.94,63.94,0,0,0,4.24,22,104.75,104.75,0,0,0-16.1,43.21q-.85,5.08-1.69,10.16c-14.27,4.78-23.17,15-22,22.88,1.51,10.49,21,18.55,34.73,11.86,12.54-6.12,14.29-21.68,14.41-22.87,2.57-3.88,5.14-8.11,7.62-12.71a161.78,161.78,0,0,0,13.56-33.89c12.14-17.76,14.6-30.44,14.4-39-.1-4.36,2.09-9.11,1.69-15.25a44.19,44.19,0,0,0-2.51-12.1c3.33,22.63,7.51,31.45,11,35,1.05,1.07,5.5,5.19,6,11,.1,1.18-.07,1.13,0,4a56.51,56.51,0,0,0,1,10c.81,4,1.4,3.87,2,7,.75,3.91,0,5.11,0,10,0,8.48,2.13,10.23,1.6,18.83a37.33,37.33,0,0,1-.6,5.17c-2.5,12.86-8.71,15.94-8,21,1,7.1,15.16,14.86,70,18.87Z"/></g><g id="front_body" data-name="front body"><path class="cls-3" d="M309.5,288.5a67.06,67.06,0,0,1,15,2c5.75,1.45,9.69,2.49,13,6a19.08,19.08,0,0,1,4,7c.73,1.93,2.22,6.46,1.4,20.8-.54,9.53-.37,7.3-1.4,14.2-1.94,13-2.15,14.63-4,17s-3.58,3-5,6a15.89,15.89,0,0,0-1,10c3.19,12.42,76.89,18.46,85.57,55,.47,2,4.68,10.06,7.13,16A61.67,61.67,0,0,1,428.47,473a55.33,55.33,0,0,1-1.42,7.37c.81-9.08,2-16.38,2.85-21.19,2.46-13.67,4.66-19,5.7-29.67a103.23,103.23,0,0,0,0-20c-3.42-4.74-7.34-11.93-5.1-18,5.06-13.69,40-17.55,48-4,4.66,7.89-1.08,19.45-3,23a81.06,81.06,0,0,0-7.13,17c-3.28,11.29-1.94,16.23-4.27,29-1.17,6.42-2.7,14.81-7.13,24-3.32,6.9-9.71,17.22-22.8,28.42-7.81,6.68-16.17,11.51-25,10.14-22.15-3.44-34.28-47.72-26.65-53.56,1.42-1.08,3.86-1.11,5,0,3.21,3.1-5.21,13.66-11,30-6,16.89-2.6,21.43-6.46,29.09-4.8,9.53-18.71,19.7-60.54,19.91Z"/><path class="cls-3" d="M310.5,288.5a67.06,67.06,0,0,0-15,2c-5.75,1.45-9.69,2.49-13,6a19.08,19.08,0,0,0-4,7c-.73,1.93-2.22,6.46-1.4,20.8.54,9.53.37,7.3,1.4,14.2,1.94,13,2.15,14.63,4,17s3.58,3,5,6a15.89,15.89,0,0,1,1,10c-3.19,12.42-76.89,18.46-85.57,55-.47,2-4.68,10.06-7.13,16A61.67,61.67,0,0,0,191.53,473a55.33,55.33,0,0,0,1.42,7.37c-.81-9.08-2-16.38-2.85-21.19-2.46-13.67-4.66-19-5.7-29.67a103.23,103.23,0,0,1,0-20c3.42-4.74,7.34-11.93,5.1-18-5.06-13.69-40-17.55-48-4-4.66,7.89,1.08,19.45,3,23a81.06,81.06,0,0,1,7.13,17c3.28,11.29,1.94,16.23,4.27,29,1.17,6.42,2.7,14.81,7.13,24,3.32,6.9,9.71,17.22,22.8,28.42,7.81,6.68,16.17,11.51,25,10.14,22.15-3.44,34.28-47.72,26.65-53.56-1.42-1.08-3.86-1.11-5,0-3.21,3.1,5.21,13.66,11,30,6,16.89,2.6,21.43,6.46,29.09,4.8,9.53,18.71,19.7,60.54,19.91Z"/></g><g id="weights"><path class="cls-4" d="M434.43,395a47.66,47.66,0,0,0-8.74-25.11,29.45,29.45,0,0,0-20-1.4,40.7,40.7,0,0,0-9.26,13c-6.85,15.36-1.61,30,0,34a45.63,45.63,0,0,0,8,13,72.15,72.15,0,0,0,10,0,71.12,71.12,0,0,0,10-1.4C426.54,424.1,435.28,411,434.43,395Z"/><path class="cls-4" d="M475.55,395a47.66,47.66,0,0,1,8.74-25.11,29.45,29.45,0,0,1,20-1.4,40.7,40.7,0,0,1,9.26,13c6.85,15.36,1.6,30,0,34a45.63,45.63,0,0,1-8,13,72.15,72.15,0,0,1-10,0,71.12,71.12,0,0,1-10-1.4C483.44,424.1,474.7,411,475.55,395Z"/><path class="cls-4" d="M184.6,395a47.66,47.66,0,0,1,8.74-25.11,29.49,29.49,0,0,1,20-1.4,40.86,40.86,0,0,1,9.26,13c6.84,15.36,1.6,30,0,34a45.86,45.86,0,0,1-8,13,72.15,72.15,0,0,1-10,0,71.27,71.27,0,0,1-10-1.4C192.49,424.1,183.75,411,184.6,395Z"/><path class="cls-4" d="M143.49,395a47.55,47.55,0,0,0-8.75-25.11,29.19,29.19,0,0,0-9.24-2.4,29.51,29.51,0,0,0-10.74,1,40.86,40.86,0,0,0-9.26,13c-6.84,15.36-1.6,30,0,34a45.86,45.86,0,0,0,8,13,72.15,72.15,0,0,0,10,0,71.27,71.27,0,0,0,10-1.4C135.59,424.1,144.33,411,143.49,395Z"/></g></svg>